# xmcd
# Track frame offsets:
# 150
# 11170
# 24060
# 33662
# 46876
# 59596
# 70630
# 89849
# 106759
# 115097
# 125908
# 148265
# 163858
# 180991
# 193697
# 217520
# 230706
# 245512
# 270628
# 282731
#
# Disc length: 4007 seconds
# Revision: 0
# Processed by: cddbd v1.5.2PL0 Copyright (c) Steve Scherf et al.
# Submitted via: VisiTrax 2.10.0.248 - For more info visit www.synapsa.com
#
DISCID=280fa514
DTITLE=Dolly Parton - All I Can Do-New Harvest...First Gathering
DYEAR=1900
DGENRE=
TTITLE0=All I Can Do
TTITLE1=Fire That Keeps You Warm
TTITLE2=When The Sun Goes Down Tomorrow
TTITLE3=I'm A Drifter
TTITLE4=Falling Out Of Love With Me
TTITLE5=Shattered Image
TTITLE6=Boulder To Birmingham
TTITLE7=Preacher Tom
TTITLE8=Life's Like Poetry
TTITLE9=Hey, Lucky Lady
TTITLE10=Light Of A Clear Blue Morning
TTITLE11=Applejack
TTITLE12=My Girl (My Love)
TTITLE13=Holdin' On To You
TTITLE14=You Are
TTITLE15=How Does It Feel
TTITLE16=Where Beauty Lives In Memory
TTITLE17=Higher and Higher
TTITLE18=Getting In My Way
TTITLE19=There
EXTD=
EXTT0=
EXTT1=
EXTT2=
EXTT3=
EXTT4=
EXTT5=
EXTT6=
EXTT7=
EXTT8=
EXTT9=
EXTT10=
EXTT11=
EXTT12=
EXTT13=
EXTT14=
EXTT15=
EXTT16=
EXTT17=
EXTT18=
EXTT19=
PLAYORDER=
